<svg width="24" height="24" viewBox="0 0 24 24" fill="none" xmlns="http://www.w3.org/2000/svg">
<rect width="24" height="24" fill="white"/>
<path fill-rule="evenodd" clip-rule="evenodd" d="M12 16.572L21.0855 11.5245C21.497 11.2959 21.497 10.7041 21.0855 10.4755L12 5.42802L2.91453 10.4755C2.50304 10.7041 2.50304 11.2959 2.91453 11.5245L12 16.572ZM12 6.57198L19.9704 11L12 15.428L4.02956 11L12 6.57198Z" fill="black"/>
<path d="M12 18.82L21.2428 13.69C21.4842 13.5559 21.5712 13.2514 21.4371 13.01C21.303 12.7686 20.9986 12.6759 20.7572 12.81L12 17.68L3.24282 12.81C3.00143 12.6759 2.69703 12.7686 2.56292 13.01C2.42881 13.2514 2.51579 13.5559 2.75718 13.69L12 18.82Z" fill="black"/>
</svg>
