<svg width="16" height="16" viewBox="0 0 16 16" fill="none" xmlns="http://www.w3.org/2000/svg">
<path fill-rule="evenodd" clip-rule="evenodd" d="M6.03114 9.96887C4.31983 9.73976 3 8.27401 3 6.5C3 4.567 4.567 3 6.5 3C8.28198 3 9.75292 4.33172 9.97188 6.05423C9.9709 6.04652 9.9699 6.03883 9.96887 6.03114C11.6802 6.26025 13 7.72599 13 9.5C13 11.433 11.433 13 9.5 13C7.72599 13 6.26025 11.6802 6.03114 9.96887ZM9 6.5C9 7.88071 7.88071 9 6.5 9C5.11929 9 4 7.88071 4 6.5C4 5.11929 5.11929 4 6.5 4C7.88071 4 9 5.11929 9 6.5ZM9.9583 7.04192C9.7253 8.54096 8.54096 9.7253 7.04192 9.9583C7.25717 11.1201 8.27583 12 9.5 12C10.8807 12 12 10.8807 12 9.5C12 8.27583 11.1201 7.25717 9.9583 7.04192Z" fill="white"/>
</svg>
