<svg width="16" height="16" viewBox="0 0 16 16" fill="none" xmlns="http://www.w3.org/2000/svg">
<rect width="16" height="16" fill="white"/>
<path fill-rule="evenodd" clip-rule="evenodd" d="M8 2C9.65685 2 11 3.34315 11 5V7H11.5C11.7761 7 12 7.22386 12 7.5V13.5C12 13.7761 11.7761 14 11.5 14H4.5C4.22386 14 4 13.7761 4 13.5V7.5C4 7.22386 4.22386 7 4.5 7H5V5C5 3.34315 6.34315 2 8 2ZM6 7H10V5C10 3.89543 9.10457 3 8 3C6.89543 3 6 3.89543 6 5V7ZM8.72559 10.1881C8.89566 10.0089 9 9.76661 9 9.5C9 8.94772 8.55228 8.5 8 8.5C7.44772 8.5 7 8.94772 7 9.5C7 9.76661 7.10434 10.0089 7.27441 10.1881C7.39725 10.3176 7.5 10.4761 7.5 10.6546V12C7.5 12.2761 7.72386 12.5 8 12.5C8.27614 12.5 8.5 12.2761 8.5 12V10.6546C8.5 10.4761 8.60275 10.3176 8.72559 10.1881Z" fill="black"/>
</svg>
