<svg width="16" height="16" viewBox="0 0 16 16" fill="none" xmlns="http://www.w3.org/2000/svg">
<rect width="16" height="16" fill="white"/>
<path d="M8 4C8.85667 4 9.9512 4.37594 10.9703 4.92373L10.1253 5.61507C9.32405 5.2289 8.55105 5 8 5C7.18491 5 5.88419 5.50083 4.72467 6.27062C4.16377 6.64299 3.69506 7.0402 3.3792 7.40094C3.04315 7.78474 3.00289 7.98567 3.00016 7.99928V8.00072C3.00289 8.01433 3.04315 8.21527 3.3792 8.59906C3.69506 8.9598 4.16377 9.35701 4.72467 9.72938C4.79353 9.7751 4.86289 9.81987 4.93262 9.86364L4.12032 10.5283C2.92136 9.72204 2 8.7395 2 8C2 6.5 5.79086 4 8 4Z" fill="black"/>
<path d="M8 6C8.44231 6 8.85108 6.14358 9.18225 6.38667L8.35389 7.06442C8.24388 7.02279 8.1246 7 8 7C7.44772 7 7 7.44772 7 8C7 8.05499 7.00444 8.10895 7.01298 8.16153L6.18423 8.8396C6.06599 8.5843 6 8.29985 6 8C6 6.89543 6.89543 6 8 6Z" fill="black"/>
<path fill-rule="evenodd" clip-rule="evenodd" d="M12.5098 5.93247L13.8123 4.89044L13.1877 4.10957L3.18765 12.1096L3.81235 12.8904L5.67922 11.3969C6.49829 11.7655 7.32334 12 8 12C10.2091 12 14 9.5 14 8C14 7.39669 13.3867 6.6316 12.5098 5.93247ZM7.50314 9.9378L6.57091 10.6836C7.11237 10.8862 7.61138 11 8 11C8.81509 11 10.1158 10.4992 11.2753 9.72938C11.8362 9.35701 12.3049 8.9598 12.6208 8.59906C12.9568 8.21527 12.9971 8.01433 12.9998 8.00072V7.99928C12.9971 7.98567 12.9568 7.78474 12.6208 7.40094C12.3898 7.13717 12.0772 6.85391 11.7065 6.57511L9.99915 7.941C9.99971 7.96059 10 7.98026 10 8C10 9.10457 9.10457 10 8 10C7.82848 10 7.66201 9.97841 7.50314 9.9378Z" fill="black"/>
</svg>
