<svg width="16" height="16" viewBox="0 0 16 16" fill="none" xmlns="http://www.w3.org/2000/svg">
<path fill-rule="evenodd" clip-rule="evenodd" d="M10 8C10 9.10457 9.10457 10 8 10C6.89543 10 6 9.10457 6 8C6 6.89543 6.89543 6 8 6C9.10457 6 10 6.89543 10 8ZM9 8C9 8.55228 8.55228 9 8 9C7.44772 9 7 8.55228 7 8C7 7.44772 7.44772 7 8 7C8.55228 7 9 7.44772 9 8Z" fill="white"/>
<path fill-rule="evenodd" clip-rule="evenodd" d="M14 8C14 9.5 10.2091 12 8 12C5.79086 12 2 9.5 2 8C2 6.5 5.79086 4 8 4C10.2091 4 14 6.5 14 8ZM12.9998 8.00072C12.9998 8.00062 13 8.00014 12.9998 8.00072C12.9971 8.01433 12.9568 8.21527 12.6208 8.59906C12.3049 8.9598 11.8362 9.35701 11.2753 9.72938C10.1158 10.4992 8.81509 11 8 11C7.18491 11 5.88419 10.4992 4.72467 9.72938C4.16377 9.35701 3.69506 8.9598 3.3792 8.59906C3.04315 8.21527 3.00289 8.01433 3.00016 8.00072C3.00019 8.0006 3.00011 7.99957 3.00016 7.99928C3.00289 7.98567 3.04315 7.78474 3.3792 7.40094C3.69506 7.0402 4.16377 6.64299 4.72467 6.27062C5.88419 5.50083 7.18491 5 8 5C8.81509 5 10.1158 5.50083 11.2753 6.27062C11.8362 6.64299 12.3049 7.0402 12.6208 7.40094C12.9568 7.78474 12.9971 7.98567 12.9998 7.99928C13 7.99986 12.9998 8.00082 12.9998 8.00072Z" fill="white"/>
</svg>
