<svg width="24" height="24" viewBox="0 0 24 24" fill="none" xmlns="http://www.w3.org/2000/svg">
<rect width="24" height="24"/>
<path d="M22 4H21V3H20V2H22V4Z" fill="white"/>
<path d="M3 20H2V22H4V21H3V20Z" fill="white"/>
<path d="M20 21V22H22V20H21V21H20Z" fill="white"/>
<path d="M4 3V2H2V4H3V3H4Z" fill="white"/>
<path fill-rule="evenodd" clip-rule="evenodd" d="M8.408 6.01V18.25H12.458C13.67 18.25 14.558 17.956 15.122 17.368C15.698 16.768 15.986 15.976 15.986 14.992V14.596C15.986 13.948 15.818 13.396 15.482 12.94C15.158 12.472 14.678 12.136 14.042 11.932C14.498 11.692 14.846 11.368 15.086 10.96C15.326 10.552 15.446 10.084 15.446 9.556V9.16C15.446 8.2 15.164 7.438 14.6 6.874C14.048 6.298 13.184 6.01 12.008 6.01H8.408ZM9.974 7.45H12.008C12.608 7.45 13.058 7.606 13.358 7.918C13.67 8.218 13.826 8.632 13.826 9.16V9.592C13.826 10.132 13.67 10.558 13.358 10.87C13.058 11.17 12.608 11.32 12.008 11.32H9.974V7.45ZM9.974 12.76H12.458C13.094 12.76 13.568 12.922 13.88 13.246C14.204 13.57 14.366 14.008 14.366 14.56V14.992C14.366 15.568 14.204 16.018 13.88 16.342C13.568 16.666 13.094 16.828 12.458 16.828H9.974V12.76Z" fill="white"/>
</svg>
