<svg width="24" height="24" viewBox="0 0 24 24" fill="none" xmlns="http://www.w3.org/2000/svg">
<rect width="24" height="24"/>
<path d="M18 6H9V12.5858L8 13.5827V5H19V19H8V16.1462L9 17.0046V18H18V6Z" fill="white"/>
<path fill-rule="evenodd" clip-rule="evenodd" d="M5.5 14C5.74555 14 5.97732 13.941 6.18191 13.8364L7.37906 14.9138L6.14671 16.1462C5.95089 16.0525 5.73157 16 5.5 16C4.67157 16 4 16.6716 4 17.5C4 18.3284 4.67157 19 5.5 19C6.32843 19 7 18.3284 7 17.5C7 17.2684 6.94752 17.0491 6.85381 16.8533L8.12338 15.5837L10.6655 17.8716L11.3345 17.1284L8.83147 14.8756L11.3536 12.3536L10.6464 11.6464L8.08714 14.2057L6.87045 13.1107C6.95371 12.9242 7 12.7175 7 12.5C7 11.6716 6.32843 11 5.5 11C4.67157 11 4 11.6716 4 12.5C4 13.3284 4.67157 14 5.5 14ZM5.5 13C5.77614 13 6 12.7761 6 12.5C6 12.2239 5.77614 12 5.5 12C5.22386 12 5 12.2239 5 12.5C5 12.7761 5.22386 13 5.5 13ZM5.5 18C5.77614 18 6 17.7761 6 17.5C6 17.2239 5.77614 17 5.5 17C5.22386 17 5 17.2239 5 17.5C5 17.7761 5.22386 18 5.5 18Z" fill="white"/>
</svg>
