<svg width="24" height="24" viewBox="0 0 24 24" fill="none" xmlns="http://www.w3.org/2000/svg">
<rect width="24" height="24"/>
<path d="M8 4H9V5H8V4Z" fill="white"/>
<path d="M10 4H11V5H10V4Z" fill="white"/>
<path d="M12 4H13V5H12V4Z" fill="white"/>
<path d="M15 4H14V5H15V4Z" fill="white"/>
<path d="M16 4H17V5H16V4Z" fill="white"/>
<path d="M19 4H18V5H19V4Z" fill="white"/>
<path d="M18 6H19V7H18V6Z" fill="white"/>
<path d="M19 8H18V9H19V8Z" fill="white"/>
<path d="M18 10H19V11H18V10Z" fill="white"/>
<path d="M19 12H18V13H19V12Z" fill="white"/>
<path d="M18 14H19V15H18V14Z" fill="white"/>
<path d="M19 16H18V17H19V16Z" fill="white"/>
<path fill-rule="evenodd" clip-rule="evenodd" d="M6 6H17V19H6V6ZM7 7H16V18H7V7Z" fill="white"/>
</svg>
