<svg width="24" height="24" viewBox="0 0 24 24" fill="none" xmlns="http://www.w3.org/2000/svg">
<path d="M11.5 4H12.5V5H11.5V4Z" fill="white"/>
<path d="M5.16109 10.5H4.1404C4.75034 7.28459 7.28459 4.75034 10.5 4.1404V5.16109C7.83805 5.74226 5.74226 7.83805 5.16109 10.5Z" fill="white"/>
<path d="M4.1404 13.5H5.16109C5.74226 16.1619 7.83805 18.2577 10.5 18.8389V19.8596C7.28458 19.2497 4.75034 16.7154 4.1404 13.5Z" fill="white"/>
<path d="M19.8596 13.5H18.8389C18.2577 16.1619 16.1619 18.2577 13.5 18.8389V19.8596C16.7154 19.2497 19.2497 16.7154 19.8596 13.5Z" fill="white"/>
<path d="M19.8596 10.5H18.8389C18.2577 7.83805 16.1619 5.74226 13.5 5.16109V4.1404C16.7154 4.75034 19.2497 7.28458 19.8596 10.5Z" fill="white"/>
<path d="M20 11.5H19V12.5H20V11.5Z" fill="white"/>
<path d="M4 11.5H5V12.5H4V11.5Z" fill="white"/>
<path d="M12.5 19H11.5V20H12.5V19Z" fill="white"/>
</svg>
