<svg width="24" height="24" viewBox="0 0 24 24" fill="none" xmlns="http://www.w3.org/2000/svg">
<rect width="24" height="24" fill="white"/>
<path fill-rule="evenodd" clip-rule="evenodd" d="M18.6036 5.39644C17.7179 4.51083 16.2821 4.51083 15.3965 5.39645L11.4393 9.35355C11.3456 9.44732 11.2184 9.5 11.0858 9.5L10.4142 9.5C10.0164 9.5 9.63486 9.65803 9.35356 9.93934L8.85356 10.4393C8.28816 11.0047 8.26848 11.9092 8.79451 12.4982L5.43932 15.8536C5.15803 16.1349 5.00001 16.5164 5.00001 16.9142C5.00001 17.1255 4.96497 17.3074 4.80899 17.4666C4.58195 17.6983 4.26679 18.0522 4.06653 18.4279C3.96662 18.6153 3.87558 18.844 3.86177 19.0888C3.8469 19.3523 3.92373 19.6297 4.14682 19.8529C4.36993 20.0761 4.64744 20.1529 4.91096 20.1381C5.15575 20.1243 5.38447 20.0333 5.57191 19.9334C5.94764 19.7331 6.30161 19.418 6.53339 19.1909C6.69259 19.035 6.87445 19 7.08578 19C7.48361 19 7.86516 18.8419 8.14646 18.5606L11.5016 15.2053C12.0906 15.7315 12.9952 15.7119 13.5607 15.1464L14.0607 14.6464C14.342 14.3651 14.5 13.9836 14.5 13.5858L14.5 12.9142C14.5 12.7816 14.5527 12.6544 14.6465 12.5607L18.6036 8.60355C19.4892 7.71794 19.4892 6.28206 18.6036 5.39644ZM16.1036 6.10355C16.5987 5.60846 17.4014 5.60846 17.8965 6.10355C18.3915 6.59864 18.3915 7.40135 17.8964 7.89645L13.9393 11.8536C13.658 12.1349 13.5 12.5164 13.5 12.9142L13.5 13.5858C13.5 13.7184 13.4473 13.8456 13.3536 13.9393L12.8536 14.4393C12.6583 14.6346 12.3417 14.6346 12.1465 14.4393L9.56066 11.8536C9.3654 11.6583 9.3654 11.3417 9.56066 11.1464L10.0607 10.6464C10.1544 10.5527 10.2816 10.5 10.4142 10.5H11.0858C11.4836 10.5 11.8651 10.342 12.1465 10.0607L16.1036 6.10355ZM10.7928 14.4999L9.49991 13.207L6.14644 16.5606C6.01207 16.695 6.00001 16.8618 6.00001 17.0392C6.00001 17.481 5.80563 17.8783 5.52329 18.1664C5.28512 18.4095 4.72121 18.9999 4.86061 19.1393C5.00001 19.2787 5.59046 18.7148 5.83363 18.4766C6.12178 18.1943 6.51896 18 6.96068 18C7.13817 18 7.30495 17.9879 7.43934 17.8535L10.7928 14.4999Z" fill="black"/>
</svg>
