<svg width="24" height="24" viewBox="0 0 24 24" fill="none" xmlns="http://www.w3.org/2000/svg">
<path d="M11 2H13V3H11V2Z" fill="white"/>
<path d="M21 6.5H22V8.5H21V6.5Z" fill="white"/>
<path d="M2 11H3V13H2V11Z" fill="white"/>
<path d="M22 11H21V13H22V11Z" fill="white"/>
<path d="M2 6.5H3V8.5H2V6.5Z" fill="white"/>
<path d="M21 15.5H22V17.5H21V15.5Z" fill="white"/>
<path d="M2 15.5H3V17.5H2V15.5Z" fill="white"/>
<path d="M13 21H11V22H13V21Z" fill="white"/>
<path d="M17.5 2H15.5V3H17.5V2Z" fill="white"/>
<path d="M17.5 21H15.5V22H17.5V21Z" fill="white"/>
<path d="M8.5 2H6.5V3H8.5V2Z" fill="white"/>
<path d="M3 20H2V22H4V21H3V20Z" fill="white"/>
<path d="M20 21V22H22V20H21V21H20Z" fill="white"/>
<path d="M21 4H22V2H20V3H21V4Z" fill="white"/>
<path d="M4 3V2H2V4H3V3H4Z" fill="white"/>
<path d="M6.5 21H8.5V22H6.5V21Z" fill="white"/>
</svg>
