<svg width="16" height="16" viewBox="0 0 16 16" fill="none" xmlns="http://www.w3.org/2000/svg">
<path d="M7.972 13.992C7.108 13.992 6.31333 13.8427 5.588 13.544C4.86267 13.2453 4.23333 12.824 3.7 12.28C3.16667 11.736 2.75067 11.1013 2.452 10.376C2.164 9.63999 2.02 8.83466 2.02 7.95999C2.02 7.08533 2.164 6.28533 2.452 5.55999C2.75067 4.82399 3.16667 4.18399 3.7 3.63999C4.23333 3.09599 4.86267 2.67466 5.588 2.37599C6.31333 2.07733 7.108 1.92799 7.972 1.92799C8.82533 1.92799 9.61467 2.07733 10.34 2.37599C11.0653 2.67466 11.6947 3.09599 12.228 3.63999C12.7613 4.18399 13.1773 4.82399 13.476 5.55999C13.7747 6.28533 13.924 7.08533 13.924 7.95999C13.924 8.83466 13.7747 9.63999 13.476 10.376C13.1773 11.1013 12.7613 11.736 12.228 12.28C11.6947 12.824 11.0653 13.2453 10.34 13.544C9.61467 13.8427 8.82533 13.992 7.972 13.992ZM7.972 12.872C8.88933 12.872 9.7 12.664 10.404 12.248C11.1187 11.8213 11.6787 11.24 12.084 10.504C12.5 9.76799 12.708 8.91999 12.708 7.95999C12.708 7.01066 12.5 6.16799 12.084 5.43199C11.6787 4.68533 11.1187 4.10399 10.404 3.68799C9.7 3.26133 8.88933 3.04799 7.972 3.04799C7.06533 3.04799 6.25467 3.26133 5.54 3.68799C4.82533 4.10399 4.26 4.68533 3.844 5.43199C3.43867 6.16799 3.236 7.01066 3.236 7.95999C3.236 8.91999 3.43867 9.76799 3.844 10.504C4.26 11.24 4.82533 11.8213 5.54 12.248C6.25467 12.664 7.06533 12.872 7.972 12.872ZM6.628 7.62399V8.27999C6.628 8.86666 6.73467 9.31466 6.948 9.62399C7.16133 9.92266 7.508 10.072 7.988 10.072C8.26533 10.072 8.548 10.0293 8.836 9.94399C9.124 9.85866 9.41733 9.74666 9.716 9.60799L10.18 10.872C9.45467 11.2453 8.69733 11.432 7.908 11.432C7.00133 11.432 6.31333 11.1547 5.844 10.6C5.37467 10.0453 5.14 9.27199 5.14 8.27999V7.62399C5.14 6.64266 5.37467 5.87466 5.844 5.31999C6.31333 4.76533 7.00133 4.48799 7.908 4.48799C8.24933 4.48799 8.60667 4.53066 8.98 4.61599C9.35333 4.69066 9.70533 4.81866 10.036 4.99999L9.572 6.26399C9.30533 6.13599 9.03867 6.03466 8.772 5.95999C8.50533 5.88533 8.244 5.84799 7.988 5.84799C7.508 5.84799 7.16133 5.99733 6.948 6.29599C6.73467 6.59466 6.628 7.03733 6.628 7.62399Z" fill="white"/>
</svg>
