<svg width="16" height="16" viewBox="0 0 16 16" fill="none" xmlns="http://www.w3.org/2000/svg">
<path fill-rule="evenodd" clip-rule="evenodd" d="M10.9589 4.50209C10.7217 3.08221 9.48723 2 8 2C6.34315 2 5 3.34315 5 5V7H4.5C4.22386 7 4 7.22386 4 7.5V13.5C4 13.7761 4.22386 14 4.5 14H11.5C11.7761 14 12 13.7761 12 13.5V7.5C12 7.22386 11.7761 7 11.5 7H6V5C6 3.89543 6.89543 3 8 3C8.93374 3 9.71803 3.63988 9.93829 4.50506C10.0064 4.77267 10.2239 5 10.5 5C10.7761 5 11.0044 4.77446 10.9589 4.50209ZM8.72559 10.1881C8.89566 10.0089 9 9.76661 9 9.5C9 8.94772 8.55228 8.5 8 8.5C7.44772 8.5 7 8.94772 7 9.5C7 9.76661 7.10434 10.0089 7.27441 10.1881C7.39725 10.3176 7.5 10.4761 7.5 10.6546V12C7.5 12.2761 7.72386 12.5 8 12.5C8.27614 12.5 8.5 12.2761 8.5 12V10.6546C8.5 10.4761 8.60275 10.3176 8.72559 10.1881Z" fill="white"/>
<path d="M13.4422 4.40196L12.1315 5.21262L11.8685 4.78738L13.1792 3.97672L13.4422 4.40196Z" fill="white"/>
<path d="M12.1315 5.78738L13.4422 6.59804L13.1792 7.02328L11.8685 6.21262L12.1315 5.78738Z" fill="white"/>
</svg>
