<svg width="20" height="20" viewBox="0 0 20 20" fill="none" xmlns="http://www.w3.org/2000/svg">
<path d="M3.5 2.5V3.5H1.5V2.5H3.5Z" fill="#03A9F4"/>
<path d="M3.5 6V7H1.5V6H3.5Z" fill="#03A9F4"/>
<path d="M3.5 13V14H1.5V13H3.5Z" fill="#03A9F4"/>
<path d="M3.5 9.5V10.5H1.5V9.5H3.5Z" fill="#03A9F4"/>
<path d="M3.5 16.5V17.5H1.5V16.5H3.5Z" fill="#03A9F4"/>
<path d="M8.5 2.5V3.5H6.5V2.5H8.5Z" fill="#03A9F4"/>
<path d="M8.5 6V7H6.5V6H8.5Z" fill="#03A9F4"/>
<path d="M8.5 13V14H6.5V13H8.5Z" fill="#03A9F4"/>
<path d="M8.5 9.5V10.5H6.5V9.5H8.5Z" fill="#03A9F4"/>
<path d="M8.5 16.5V17.5H6.5V16.5H8.5Z" fill="#03A9F4"/>
<path d="M13.5 2.5V3.5H11.5V2.5H13.5Z" fill="#03A9F4"/>
<path d="M13.5 6V7H11.5V6H13.5Z" fill="#03A9F4"/>
<path d="M13.5 13V14H11.5V13H13.5Z" fill="#03A9F4"/>
<path d="M13.5 9.5V10.5H11.5V9.5H13.5Z" fill="#03A9F4"/>
<path d="M13.5 16.5V17.5H11.5V16.5H13.5Z" fill="#03A9F4"/>
<path d="M18.5 2.5V3.5H16.5V2.5H18.5Z" fill="#03A9F4"/>
<path d="M18.5 6V7H16.5V6H18.5Z" fill="#03A9F4"/>
<path d="M18.5 13V14H16.5V13H18.5Z" fill="#03A9F4"/>
<path d="M18.5 9.5V10.5H16.5V9.5H18.5Z" fill="#03A9F4"/>
<path d="M18.5 16.5V17.5H16.5V16.5H18.5Z" fill="#03A9F4"/>
</svg>
