<svg width="20" height="20" viewBox="0 0 20 20" fill="none" xmlns="http://www.w3.org/2000/svg">
<path d="M20 2.3418L2.3418 20H0.707031L20 0.707031V2.3418Z" fill="#9e9e9e"/>
<path d="M20 5.38965L5.39062 20H3.75488L20 3.75488V5.38965Z" fill="#9e9e9e"/>
<path d="M20 8.43848L8.43945 20H6.80371L20 6.80371V8.43848Z" fill="#9e9e9e"/>
<path d="M20 11.4873L11.4873 20H9.85254L20 9.85254V11.4873Z" fill="#9e9e9e"/>
<path d="M20 14.5361L14.5361 20H12.9014L20 12.9014V14.5361Z" fill="#9e9e9e"/>
<path d="M20 17.585L17.585 20H15.9502L20 15.9502V17.585Z" fill="#9e9e9e"/>
<path d="M20 20H18.998L20 18.998V20Z" fill="#9e9e9e"/>
<path d="M0 19.293V17.7549L17.7559 0H19.293L0 19.293Z" fill="#9e9e9e"/>
<path d="M0 16.3418V14.8037L14.8037 0H16.3418L0 16.3418Z" fill="#9e9e9e"/>
<path d="M0 13.3896V11.8525L11.8525 0H13.3896L0 13.3896Z" fill="#9e9e9e"/>
<path d="M0 10.4385V8.90137L8.90137 0H10.4385L0 10.4385Z" fill="#9e9e9e"/>
<path d="M0 7.4873V5.9502L5.9502 0H7.4873L0 7.4873Z" fill="#9e9e9e"/>
<path d="M0 4.53613V2.99805L2.99902 0H4.53613L0 4.53613Z" fill="#9e9e9e"/>
<path d="M0 1.58496V0H1.58496L0 1.58496Z" fill="#9e9e9e"/>
</svg>
