<svg width="24" height="24" viewBox="0 0 24 24" fill="none" xmlns="http://www.w3.org/2000/svg">
<path d="M13.5144 6.19274L6.19275 13.5144C6.09003 13.1193 6.02654 12.7085 6.00671 12.2862L12.2862 6.00671C12.7085 6.02654 13.1193 6.09002 13.5144 6.19274Z" fill="white"/>
<path d="M6.95619 15.2509L15.2509 6.95618C14.9589 6.76758 14.6495 6.60365 14.3256 6.46733L6.46734 14.3256C6.60366 14.6495 6.76759 14.9589 6.95619 15.2509Z" fill="white"/>
<path d="M16.5815 8.12558L8.12559 16.5815C7.87077 16.3658 7.63419 16.1292 7.41848 15.8744L15.8744 7.41847C16.1292 7.63418 16.3658 7.87076 16.5815 8.12558Z" fill="white"/>
<path d="M9.67445 17.5327L17.5327 9.67444C17.3964 9.35052 17.2324 9.04108 17.0438 8.74907L8.74908 17.0438C9.04109 17.2324 9.35053 17.3964 9.67445 17.5327Z" fill="white"/>
<path d="M11.7138 17.9933L17.9933 11.7138C17.9735 11.2915 17.91 10.8807 17.8073 10.4856L10.4856 17.8073C10.8807 17.91 11.2915 17.9735 11.7138 17.9933Z" fill="white"/>
<path d="M6.06019 11.1469L11.1469 6.06018C10.3648 6.17152 9.63118 6.43369 8.97659 6.81631L6.81632 8.97659C6.4337 9.63118 6.17152 10.3648 6.06019 11.1469Z" fill="white"/>
<path d="M12.8531 17.9398L17.9398 12.8531C17.8285 13.6352 17.5663 14.3688 17.1837 15.0234L15.0234 17.1837C14.3688 17.5663 13.6353 17.8285 12.8531 17.9398Z" fill="white"/>
<path fill-rule="evenodd" clip-rule="evenodd" d="M20 12C20 16.4183 16.4183 20 12 20C7.58172 20 4 16.4183 4 12C4 7.58172 7.58172 4 12 4C16.4183 4 20 7.58172 20 12ZM19 12C19 15.866 15.866 19 12 19C8.13401 19 5 15.866 5 12C5 8.13401 8.13401 5 12 5C15.866 5 19 8.13401 19 12Z" fill="white"/>
</svg>
