<svg width="24" height="24" viewBox="0 0 24 24" fill="none" xmlns="http://www.w3.org/2000/svg">
<path fill-rule="evenodd" clip-rule="evenodd" d="M13.2123 5.50519L18.4948 10.7877C18.6324 10.5926 18.6139 10.321 18.4393 10.1465L13.8536 5.56066C13.679 5.38608 13.4074 5.36759 13.2123 5.50519ZM17.7929 11.5L12.5 6.20711L12.2071 6.5L17.5 11.7929L17.7929 11.5ZM16.7929 12.5L11.5 7.20711L11.2071 7.5L16.5 12.7929L16.7929 12.5ZM15.7929 13.5L10.5 8.20711L10.2071 8.5L15.5 13.7929L15.7929 13.5ZM14.7929 14.5L9.5 9.20711L9.20711 9.5L14.5 14.7929L14.7929 14.5ZM13.7929 15.5L8.5 10.2071L8.20711 10.5L13.5 15.7929L13.7929 15.5ZM12.7929 16.5L7.5 11.2071L5.91207 12.795C5.37195 13.3352 4.80702 13.8458 4.56696 14.6058C4.42902 15.0425 4.38671 15.5517 4.55005 16.1286C4.71442 16.7092 5.09581 17.3887 5.85355 18.1465C6.6113 18.9042 7.29077 19.2856 7.87139 19.45C8.44834 19.6133 8.95754 19.571 9.39422 19.433C10.1542 19.193 10.6648 18.6281 11.205 18.0879L12.7929 16.5ZM12.4393 4.85355C13.0251 4.26777 13.9749 4.26777 14.5607 4.85356L19.1464 9.43934C19.7322 10.0251 19.7322 10.9749 19.1464 11.5607L11.9121 18.795C11.2579 19.4492 10.6077 20.0984 9.69542 20.3866C9.09176 20.5773 8.38243 20.6339 7.59899 20.4121C6.81922 20.1914 5.99645 19.7036 5.14645 18.8536C4.29645 18.0036 3.80861 17.1808 3.58786 16.401C3.36607 15.6176 3.42272 14.9082 3.6134 14.3046C3.90157 13.3923 4.55081 12.7421 5.20497 12.0879L12.4393 4.85355Z" fill="white"/>
</svg>
