<svg width="20" height="20" viewBox="0 0 20 20" fill="none" xmlns="http://www.w3.org/2000/svg">
<path d="M3 17H4V18H3V19H2V18H1V17H2V16H3V17Z" fill="#757575"/>
<path d="M8 17H9V18H8V19H7V18H6V17H7V16H8V17Z" fill="#757575"/>
<path d="M13 17H14V18H13V19H12V18H11V17H12V16H13V17Z" fill="#757575"/>
<path d="M18 17H19V18H18V19H17V18H16V17H17V16H18V17Z" fill="#757575"/>
<path d="M5.5 14.5H6.5V15.5H5.5V16.5H4.5V15.5H3.5V14.5H4.5V13.5H5.5V14.5Z" fill="#757575"/>
<path d="M10.5 14.5H11.5V15.5H10.5V16.5H9.5V15.5H8.5V14.5H9.5V13.5H10.5V14.5Z" fill="#757575"/>
<path d="M15.5 14.5H16.5V15.5H15.5V16.5H14.5V15.5H13.5V14.5H14.5V13.5H15.5V14.5Z" fill="#757575"/>
<path d="M3 12H4V13H3V14H2V13H1V12H2V11H3V12Z" fill="#757575"/>
<path d="M8 12H9V13H8V14H7V13H6V12H7V11H8V12Z" fill="#757575"/>
<path d="M13 12H14V13H13V14H12V13H11V12H12V11H13V12Z" fill="#757575"/>
<path d="M18 12H19V13H18V14H17V13H16V12H17V11H18V12Z" fill="#757575"/>
<path d="M5.5 9.5H6.5V10.5H5.5V11.5H4.5V10.5H3.5V9.5H4.5V8.5H5.5V9.5Z" fill="#757575"/>
<path d="M10.5 9.5H11.5V10.5H10.5V11.5H9.5V10.5H8.5V9.5H9.5V8.5H10.5V9.5Z" fill="#757575"/>
<path d="M15.5 9.5H16.5V10.5H15.5V11.5H14.5V10.5H13.5V9.5H14.5V8.5H15.5V9.5Z" fill="#757575"/>
<path d="M3 7H4V8H3V9H2V8H1V7H2V6H3V7Z" fill="#757575"/>
<path d="M8 7H9V8H8V9H7V8H6V7H7V6H8V7Z" fill="#757575"/>
<path d="M13 7H14V8H13V9H12V8H11V7H12V6H13V7Z" fill="#757575"/>
<path d="M18 7H19V8H18V9H17V8H16V7H17V6H18V7Z" fill="#757575"/>
<path d="M5.5 4.5H6.5V5.5H5.5V6.5H4.5V5.5H3.5V4.5H4.5V3.5H5.5V4.5Z" fill="#757575"/>
<path d="M10.5 4.5H11.5V5.5H10.5V6.5H9.5V5.5H8.5V4.5H9.5V3.5H10.5V4.5Z" fill="#757575"/>
<path d="M15.5 4.5H16.5V5.5H15.5V6.5H14.5V5.5H13.5V4.5H14.5V3.5H15.5V4.5Z" fill="#757575"/>
<path d="M3 2H4V3H3V4H2V3H1V2H2V1H3V2Z" fill="#757575"/>
<path d="M8 2H9V3H8V4H7V3H6V2H7V1H8V2Z" fill="#757575"/>
<path d="M13 2H14V3H13V4H12V3H11V2H12V1H13V2Z" fill="#757575"/>
<path d="M18 2H19V3H18V4H17V3H16V2H17V1H18V2Z" fill="#757575"/>
</svg>
