<svg width="24" height="24" viewBox="0 0 24 24" fill="none" xmlns="http://www.w3.org/2000/svg">
<path d="M17.25 6.75V7.45711L7.45711 17.25H6.75V16.5429L16.5429 6.75H17.25Z" fill="white"/>
<path d="M17.25 8.54289L8.5429 17.25H9.95711L17.25 9.9571V8.54289Z" fill="white"/>
<path d="M15.4571 6.75L6.75 15.4571V14.0429L14.0429 6.75H15.4571Z" fill="white"/>
<path d="M12.9571 6.75L6.75 12.9571V11.5429L11.5429 6.75H12.9571Z" fill="white"/>
<path d="M10.4571 6.75L6.75 10.4571V9.04289L9.04289 6.75H10.4571Z" fill="white"/>
<path d="M7.95711 6.75L6.75 7.95711V6.75H7.95711Z" fill="white"/>
<path d="M13.5429 17.25H14.9571L17.25 14.9571V13.5429L13.5429 17.25Z" fill="white"/>
<path d="M17.25 17.25V16.0429L16.0429 17.25H17.25Z" fill="white"/>
<path d="M11.0429 17.25L17.25 11.0429V12.4571L12.4571 17.25H11.0429Z" fill="white"/>
<path fill-rule="evenodd" clip-rule="evenodd" d="M4.75 4.75H19.25V19.25H4.75V4.75ZM5.75 5.75H18.25V18.25H5.75V5.75Z" fill="white"/>
</svg>
